<svg xmlns="http://www.w3.org/2000/svg" width="20.241" height="28.01" viewBox="0 0 20.241 28.01"><defs><style>.a{fill:#1e2830;}</style></defs><g transform="translate(-71)"><path class="a" d="M105.924,8.479a3.556,3.556,0,0,1,7.112,0v3.337h4.924V8.479a8.479,8.479,0,1,0-16.959,0v3.337h4.924Z" transform="translate(-28.359)"/><path class="a" d="M71,246v4.431a10.121,10.121,0,1,0,20.241,0V246Zm10.941,6.971V255.3H80.3v-2.329a2.462,2.462,0,1,1,1.641,0Z" transform="translate(0 -232.542)"/><path class="a" d="M241.821,316a.821.821,0,1,0,.821.821A.822.822,0,0,0,241.821,316Z" transform="translate(-160.7 -298.713)"/></g></svg>