<svg xmlns="http://www.w3.org/2000/svg" width="24.356" height="27.21" viewBox="0 0 24.356 27.21"><defs><style>.a{fill:#1e2830;}</style></defs><g transform="translate(-24.165)"><g transform="translate(29.28)"><path class="a" d="M117.856,0a7.065,7.065,0,1,0,7.065,7.065A7.083,7.083,0,0,0,117.856,0Z" transform="translate(-110.791)"/></g><g transform="translate(24.165 14.635)"><g transform="translate(0)"><path class="a" d="M48.469,252.981a6.586,6.586,0,0,0-.71-1.3,8.781,8.781,0,0,0-6.077-3.825,1.3,1.3,0,0,0-.895.216,7.53,7.53,0,0,1-8.885,0,1.158,1.158,0,0,0-.895-.216,8.718,8.718,0,0,0-6.077,3.825,7.593,7.593,0,0,0-.71,1.3.656.656,0,0,0,.031.586,12.307,12.307,0,0,0,.833,1.234,11.726,11.726,0,0,0,1.419,1.6,18.492,18.492,0,0,0,1.419,1.234,14.068,14.068,0,0,0,16.782,0,13.564,13.564,0,0,0,1.419-1.234,14.248,14.248,0,0,0,1.419-1.6,10.816,10.816,0,0,0,.833-1.234A.526.526,0,0,0,48.469,252.981Z" transform="translate(-24.165 -247.841)"/></g></g></g></svg>